<?xml version="1.0" encoding="utf-8"?>
<!-- Generator: Adobe Illustrator 23.0.5, SVG Export Plug-In . SVG Version: 6.00 Build 0)  -->
<svg version="1.1" id="Capa_1" xmlns="http://www.w3.org/2000/svg" xmlns:xlink="http://www.w3.org/1999/xlink" x="0px" y="0px"
	 viewBox="0 0 300 108" style="enable-background:new 0 0 300 108;" xml:space="preserve">
<style type="text/css">
	.st0{clip-path:url(#SVGID_2_);fill:#DFB61D;}
	.st1{clip-path:url(#SVGID_2_);fill:#1C416B;}
	.st2{fill:#CF3D23;}
</style>
<g>
	<defs>
		<rect id="SVGID_1_" x="0.27" y="-4.29" width="299.73" height="107.18"/>
	</defs>
	<clipPath id="SVGID_2_">
		<use xlink:href="#SVGID_1_"  style="overflow:visible;"/>
	</clipPath>
	<path class="st0" d="M264.78,33.01c-0.19-2.09,0.15-3.92,1.7-5.33c0.97-0.87,2.1-1.37,3.41-1.41c1.8-0.06,3.27,0.61,4.43,1.98
		c1.14,1.35,1.3,2.98,1.17,4.76c1.31,0,2.53,0,3.75,0c1.18,0,1.64,0.45,1.64,1.6c0,5.31,0.01,10.61,0,15.91
		c0,2.29-1.76,4.04-4.05,4.04c-4.48,0.01-8.97,0.01-13.45,0c-2.28-0.01-4.02-1.77-4.02-4.07c-0.01-5.28,0-10.55,0-15.83
		c0-1.22,0.44-1.66,1.67-1.66C262.24,33,263.44,33.01,264.78,33.01 M278.17,35.75h-2.68v2.58h-2.7v-2.57h-5.36v2.59h-2.7v-2.6h-2.61
		v10.68h16.06V35.75z M278.21,49.24h-16.14c0,0.42-0.01,0.78,0,1.14c0.05,0.93,0.55,1.48,1.48,1.49c4.4,0.02,8.79,0.02,13.19,0
		c0.92,0,1.43-0.56,1.47-1.49C278.22,50.01,278.21,49.65,278.21,49.24 M272.78,32.97c0.14-1.44,0.07-2.75-1.28-3.59
		c-0.94-0.58-1.91-0.55-2.84,0.06c-1.29,0.86-1.3,2.15-1.19,3.53H272.78z"/>
	<path class="st1" d="M263.59,67.32c1.62,0.32,3.27,0.48,4.95,0.48c0.03,0,0.07,0,0.1,0l-0.06-0.48H263.59z"/>
	<path class="st1" d="M220.87,19.05c0.97-2.51,3.29-4.03,6.26-4.04c11.3-0.02,20.73-0.01,29.7,0c1.25,0,2.34,0.27,3.29,0.8
		c1.46-0.5,2.96-0.88,4.51-1.12c0.66-0.1,1.3-0.16,1.9-0.21c-2.38-3.17-5.47-4.79-9.21-4.82c-8.77-0.06-17.69-0.04-26.32-0.03
		l-4.43,0.01c-5.17,0.01-9.86,3.64-11.14,8.64c-0.04,0.15-0.07,0.31-0.11,0.48h3.89C219.79,18.77,220.34,18.87,220.87,19.05"/>
	<path class="st1" d="M209.77,79.61l-5.36,0.6l0,4.42c0.01,5.16,0.01,10.31,0,15.47v2.78h5.35v-3.96c0-5.22,0-10.44,0-15.67
		L209.77,79.61z"/>
	<path class="st1" d="M268.79,71.8c-0.01-0.88-0.01-1.8,0.01-2.68v0c0-0.25-0.03-0.46-0.06-0.64c-0.01-0.05-0.02-0.1-0.02-0.15
		l-0.07-0.54c-0.03,0-0.07,0-0.1,0c-1.69,0-3.34-0.16-4.95-0.48h-0.15l0,3.42c0,1.63,0,3.25,0,4.87c-0.02,4.08-2.76,6.82-6.81,6.82
		c-7.13,0.01-14.26,0.01-21.39,0l-3.81,0l3.88-6.72l1.42-2.5V72.9c0-0.36,0.02-0.7,0.03-1.03c0.03-0.76,0.07-1.55-0.08-2.33
		c-0.33-1.69-1.24-3.16-2.51-4.19c-0.9-0.73-1.99-1.25-3.16-1.45c-1.35-0.23-2.65-0.12-3.82,0.29c-1.54,0.54-2.85,1.62-3.76,3.15
		c-1.03,1.74-2.05,3.52-3.04,5.24c-0.01,0.01-0.01,0.02-0.02,0.03v-0.24c-0.08,0.12-0.17,0.25-0.25,0.37
		c-0.27,0.38-0.56,0.75-0.85,1.11c-1.19,1.43-2.6,2.64-4.18,3.61c0.17,1.5,0.65,2.96,1.44,4.35c0.51,0.89,1.33,1.42,2.25,1.46
		c0.93,0.04,1.82-0.43,2.42-1.3c0.15-0.22,0.28-0.45,0.39-0.64l2.03-3.52c1.45-2.51,2.89-5.03,4.35-7.54
		c0.6-1.03,1.6-1.37,2.55-0.85c0.45,0.24,0.75,0.61,0.88,1.05c0.15,0.51,0.05,1.1-0.28,1.67c-1.94,3.41-4.14,7.27-6.37,11.04
		c-0.81,1.38-0.79,2.67,0.08,3.95c0.33,0.49,0.63,1.01,0.95,1.56c0.35,0.61,0.71,1.24,1.13,1.84c1.32,1.89,1.89,3.96,1.75,6.32
		c-0.07,1.14-0.05,2.29-0.03,3.39c0.01,0.49,0.01,0.98,0.01,1.47v1.17h5.36v-1.17c0-0.66,0-1.32-0.01-1.97
		c-0.01-1.49-0.01-2.9,0.01-4.33c0.04-2.26-0.55-4.43-1.76-6.46c-0.23-0.39-0.46-0.77-0.7-1.17l6.81,0c6.2,0,12.62,0.01,18.93-0.01
		c5.63-0.01,10.58-4.26,11.27-9.66C268.82,76.02,268.81,73.88,268.79,71.8"/>
	<path class="st0" d="M242.69,69.58c-1.73,0.02-2.91,1.14-2.89,2.59c0.02,1.45,1.21,2.51,2.95,2.55c1.61,0.04,3.21,0.01,4.82,0.01
		c1.61,0,3.21,0.04,4.82-0.01c1.63-0.05,2.78-1.12,2.81-2.51c0.04-1.45-1.15-2.6-2.87-2.62C249.12,69.54,245.91,69.54,242.69,69.58"
		/>
</g>
<path class="st2" d="M27.74,81.98c-0.95,3.37-3.45,5.9-7.95,5.9c-6.03,0-9.14-4.69-9.14-10.5c0-5.58,3.08-10.64,9.2-10.64
	c4.63,0,7.26,2.61,7.9,6.05h-2.1c-0.85-2.48-2.47-4.21-5.9-4.21c-4.86,0-6.88,4.43-6.88,8.75c0,4.25,1.96,8.72,7,8.72
	c3.27,0,4.84-1.77,5.75-4.07H27.74z M43.86,80.18c0,4.2-2.36,7.81-6.84,7.81c-4.12,0-6.65-3.29-6.65-7.77
	c0-4.31,2.43-7.79,6.81-7.79C41.2,72.43,43.86,75.52,43.86,80.18z M32.43,80.21c0,3.41,1.78,6.04,4.7,6.04
	c2.98,0,4.67-2.47,4.67-6.04c0-3.43-1.66-6.05-4.72-6.05C33.96,74.17,32.43,76.72,32.43,80.21z M47.37,76.61
	c0-1.28,0-2.65-0.03-3.83h1.92c0.03,0.48,0.1,1.67,0.08,2.48c0.65-1.41,1.98-2.83,4.39-2.83c2.09,0,3.64,1.05,4.22,2.81
	c0.77-1.48,2.21-2.81,4.79-2.81c2.34,0,4.67,1.36,4.67,5.44v9.77h-1.96v-9.53c0-1.87-0.67-3.88-3.23-3.88
	c-2.67,0-3.86,2.09-3.86,4.86v8.54h-1.94v-9.47c0-2.05-0.6-3.92-3.15-3.92c-2.65,0-3.94,2.27-3.94,5.21v8.19h-1.97V76.61z
	 M74.04,85.6v7.93h-1.97v-17.1c0-1.21,0-2.5-0.03-3.64h1.93c0.06,0.53,0.07,1.43,0.07,2.52c0.87-1.65,2.44-2.87,5.06-2.87
	c3.47,0,5.94,2.91,5.94,7.4c0,5.33-2.86,8.16-6.45,8.16C76.06,87.99,74.75,86.9,74.04,85.6z M78.45,86.24
	c2.92,0,4.52-2.44,4.52-6.34c0-3.31-1.56-5.7-4.31-5.7c-3.36,0-4.72,2.12-4.72,5.96C73.94,83.93,75.02,86.24,78.45,86.24
	L78.45,86.24z M88.56,76.82c0-2.3-0.02-3.42-0.03-4.04h1.94c0.03,0.45,0.07,1.5,0.07,3.19c0.82-2.13,2.66-3.45,5.09-3.55v2.04
	c-3.07,0.15-5.09,2.04-5.09,5.68v7.49h-1.98V76.82z M108.59,77.2v7.42c0,1.33,0.12,2.56,0.21,3.01h-1.89
	c-0.12-0.34-0.21-1.02-0.26-2.13c-0.51,1.05-1.76,2.48-4.74,2.48c-3.47,0-4.96-2.25-4.96-4.49c0-3.29,2.56-4.79,7-4.79
	c1.15,0,2.11,0,2.69,0v-1.4c0-1.4-0.43-3.22-3.54-3.22c-2.76,0-3.2,1.42-3.5,2.61h-1.94c0.19-1.82,1.31-4.27,5.49-4.27
	C106.64,72.43,108.59,73.88,108.59,77.2L108.59,77.2z M106.65,80.21c-0.52,0-1.78,0-2.68,0c-3.14,0-4.98,0.84-4.98,3.19
	c0,1.72,1.21,2.93,3.18,2.93c3.94,0,4.48-2.63,4.48-5.61V80.21z M121.32,67.03h2.1v18.74h10.92l-0.33,1.86h-12.69V67.03z
	 M149.64,80.18c0,4.2-2.36,7.81-6.84,7.81c-4.12,0-6.65-3.29-6.65-7.77c0-4.31,2.43-7.79,6.81-7.79
	C146.98,72.43,149.64,75.52,149.64,80.18z M138.21,80.21c0,3.41,1.78,6.04,4.7,6.04c2.98,0,4.67-2.47,4.67-6.04
	c0-3.43-1.66-6.05-4.72-6.05C139.74,74.17,138.21,76.72,138.21,80.21z M164.62,83.19c-0.68,2.59-2.4,4.8-5.93,4.8
	c-3.88,0-6.48-2.84-6.48-7.71c0-4.13,2.26-7.85,6.66-7.85c4,0,5.52,2.85,5.75,4.85h-1.98c-0.41-1.63-1.46-3.11-3.81-3.11
	c-2.91,0-4.56,2.48-4.56,6.04c0,3.46,1.56,6.05,4.43,6.05c2.03,0,3.23-1.05,3.93-3.07H164.62z M178.58,77.2v7.42
	c0,1.33,0.12,2.56,0.21,3.01h-1.89c-0.12-0.34-0.21-1.02-0.26-2.13c-0.51,1.05-1.76,2.48-4.74,2.48c-3.47,0-4.96-2.25-4.96-4.49
	c0-3.29,2.56-4.79,7-4.79c1.15,0,2.11,0,2.69,0v-1.4c0-1.4-0.43-3.22-3.54-3.22c-2.76,0-3.2,1.42-3.5,2.61h-1.94
	c0.19-1.82,1.31-4.27,5.49-4.27C176.63,72.43,178.58,73.88,178.58,77.2L178.58,77.2z M176.64,80.21c-0.52,0-1.78,0-2.68,0
	c-3.14,0-4.98,0.84-4.98,3.19c0,1.72,1.21,2.93,3.18,2.93c3.94,0,4.48-2.63,4.48-5.61V80.21z M183.25,87.63V65.92h1.98v21.71H183.25
	z"/>
<path class="st2" d="M292.38,37.3c-2.13-10.56-11.5-18.26-22.27-18.31c-0.03,0-0.07,0-0.1,0c-0.35,0.03-0.69,0.05-1.04,0.08
	c-0.78,0.05-1.58,0.1-2.38,0.23c-6.67,1.04-12.49,4.99-15.95,10.85c-3.48,5.88-4.15,12.92-1.83,19.3c0.08,0.21,0.07,0.22-0.01,0.34
	c-0.8,1.32-1.59,2.66-2.35,3.96c-0.53,0.9-1.06,1.8-1.6,2.7c-0.31,0.52-1.04,1.75-0.18,3.07c0.92,1.4,2.41,1.13,3.04,1.01
	c0.83-0.15,1.66-0.31,2.49-0.47c1.66-0.32,3.39-0.65,5.07-0.94c0.07-0.01,0.24,0.04,0.3,0.08c4.36,3.52,9.16,5.29,14.31,5.29
	c1.54,0,3.11-0.16,4.71-0.47c5.92-1.17,11.03-4.59,14.4-9.64C292.38,49.3,293.58,43.24,292.38,37.3 M273.04,59.21
	c-5.48,0.88-10.41-0.55-14.65-4.25c-0.76-0.67-1.57-0.99-2.47-0.99c-0.31,0-0.62,0.04-0.95,0.11c-1.08,0.24-2.17,0.43-3.3,0.64
	c0.53-0.91,1.04-1.78,1.59-2.62c0.85-1.31,0.97-2.56,0.38-4.07c-1.92-4.92-1.49-10.4,1.16-15.06c2.64-4.64,7.13-7.79,12.31-8.65
	c4.85-0.8,9.64,0.31,13.51,3.13c3.83,2.8,6.33,6.99,7.04,11.81C289.03,48.74,282.48,57.7,273.04,59.21"/>
<path class="st2" d="M62.03,22.74h-4.84c-0.62,0-1.13,0.5-1.13,1.13v36.37c0,0.62,0.51,1.13,1.13,1.13h4.84
	c0.62,0,1.13-0.51,1.13-1.13V23.87C63.16,23.25,62.66,22.74,62.03,22.74"/>
<path class="st2" d="M62.03,5.94h-4.84c-0.62,0-1.13,0.5-1.13,1.13v7.42c0,0.62,0.51,1.13,1.13,1.13h4.84c0.62,0,1.13-0.5,1.13-1.13
	V7.07C63.16,6.45,62.66,5.94,62.03,5.94"/>
<path class="st2" d="M87.36,21.88c-10.65,0-17.8,8.12-17.8,20.2c0,12.06,7,20.16,17.42,20.16c5.51,0,10.13-2.12,13.37-6.13
	c2.91-3.61,4.51-8.63,4.51-14.12C104.86,29.96,97.83,21.88,87.36,21.88 M87.26,55.73c-6.22,0-10.39-5.49-10.39-13.67
	c0-8.56,3.83-13.67,10.25-13.67c7.7,0,10.44,7.07,10.44,13.68C97.56,50.49,93.61,55.73,87.26,55.73"/>
<path class="st2" d="M128.97,21.88c-4.68,0-8.21,1.48-10.7,4.52c-0.04-1.13-0.09-2.17-0.16-2.68c-0.08-0.56-0.55-0.97-1.12-0.97
	h-4.72c-0.3,0-0.59,0.12-0.81,0.34c-0.21,0.22-0.33,0.51-0.32,0.82c0.07,2.85,0.07,5.91,0.07,9.14v27.2c0,0.62,0.5,1.13,1.13,1.13
	h4.84c0.62,0,1.13-0.51,1.13-1.13V41.37c0-5.85,1.66-12.82,9.59-12.82c4.91,0,7.29,2.91,7.29,8.88v22.8c0,0.62,0.51,1.13,1.13,1.13
	h4.84c0.62,0,1.13-0.51,1.13-1.13V36.75C142.29,27.44,137.31,21.88,128.97,21.88"/>
<path class="st2" d="M165.86,21.88c-10.47,0-17.24,8.05-17.24,20.51c0,9.15,4.4,19.84,16.82,19.84c10.7,0,14.52-7.1,15.85-11.33
	c0.11-0.34,0.05-0.72-0.17-1c-0.21-0.29-0.55-0.46-0.91-0.46h-4.9c-0.45,0-0.85,0.27-1.03,0.68c-1.28,2.91-3.21,5.61-8.67,5.61
	c-5.62,0-9.38-4.59-9.78-11.78h25.09c0.59,0,1.07-0.45,1.12-1.03c0.09-1.01,0.09-2.02,0.09-3.1
	C182.13,30.89,177.1,21.88,165.86,21.88 M156.16,37.93c0.98-6.5,4.12-9.67,9.58-9.67c6.19,0,8.73,4.8,9.11,9.67H156.16z"/>
<path class="st2" d="M219.22,22.75h-4.57c-0.58,0-1.07,0.45-1.12,1.03c-0.03,0.36-0.07,0.99-0.1,1.7c-1.75-1.81-4.85-3.6-10.24-3.6
	c-4.67,0-8.91,1.92-11.92,5.4c-3.16,3.65-4.83,8.77-4.83,14.8c0,11.31,6.65,19.21,16.18,19.21c3.12,0,5.64-0.56,7.72-1.7
	c1.12-0.62,2.1-1.4,2.94-2.36c-0.03,3.02-0.37,5.4-1.03,7.26c-0.07,0.17-0.13,0.34-0.19,0.51c-0.7,1.7-1.69,2.93-3.05,3.76
	c-0.77,0.47-1.68,0.83-2.71,1.05c-0.95,0.21-2.01,0.31-3.15,0.31c-4.66,0-7.79-2.12-8.8-5.97c-0.13-0.5-0.58-0.84-1.09-0.84h-4.94
	c-0.33,0-0.64,0.14-0.85,0.39c-0.21,0.25-0.31,0.58-0.26,0.9c0.53,3.59,3.12,11.93,15.74,11.93c1.31,0,2.57-0.09,3.76-0.27
	c1.15-0.17,2.25-0.43,3.25-0.77c1.05-0.35,2.03-0.8,2.91-1.32c1.27-0.76,2.4-1.72,3.35-2.86c0.23-0.27,0.45-0.56,0.66-0.86
	c1.89-2.66,2.99-6.23,3.27-10.61c0.05-0.81,0.08-1.63,0.08-2.44v-23c0-2.27,0.05-5.38,0.09-7.66c0.02-1.24,0.04-2.28,0.04-2.86
	c0-0.3-0.12-0.59-0.33-0.8C219.81,22.86,219.52,22.75,219.22,22.75 M203.45,54.73c-5.8,0-9.69-5.17-9.69-12.85
	c0-3.16,0.71-13.45,9.91-13.45c7,0,9.73,3.62,9.73,12.92C213.39,50.73,210.42,54.73,203.45,54.73"/>
<path class="st2" d="M248.86,28v-4.99c0-0.31-0.13-0.6-0.35-0.81c-0.22-0.21-0.52-0.33-0.83-0.31c-4.77,0.19-8.72,2.17-11.33,5.56
	c-0.03-1.59-0.08-2.87-0.14-3.65c-0.04-0.59-0.53-1.04-1.12-1.04h-4.75c-0.3,0-0.59,0.12-0.8,0.33c-0.21,0.21-0.33,0.5-0.33,0.8
	c0,0.38,0.01,0.84,0.02,1.4c0.02,1.7,0.06,4.26,0.06,8.48v26.48c0,0.62,0.51,1.13,1.13,1.13h4.84c0.62,0,1.13-0.51,1.13-1.13V41.9
	c0-7.87,4.05-12.41,11.4-12.78C248.39,29.09,248.86,28.6,248.86,28"/>
<path class="st2" d="M48.09,23.16c0-8.94-6.38-14.5-16.64-14.5H12.62c-0.62,0-1.13,0.5-1.13,1.13v50.45c0,0.62,0.51,1.13,1.13,1.13
	h5.17c0.62,0,1.13-0.51,1.13-1.13V38.41h10.33c9,0,10.52,3.07,10.52,9.97v1.2c0,0.55,0,1.1,0,1.63c-0.02,3.95-0.03,7.36,0.88,9.48
	c0.18,0.41,0.59,0.68,1.04,0.68h5.11c0.38,0,0.74-0.19,0.94-0.51c0.21-0.32,0.24-0.72,0.09-1.07c-0.65-1.46-0.61-4.99-0.58-7.83
	c0.01-0.63,0.01-1.25,0.01-1.84v-2.04c0-6.58-2-10.88-6.09-13.05C45.55,32.86,48.09,28.61,48.09,23.16 M29.43,31.63H18.92v-16.2
	h11.44c6.68,0,10.07,2.69,10.07,8C40.43,27.25,39.18,31.63,29.43,31.63"/>
</svg>
